<svg width="24" height="18" viewBox="0 0 24 18" fill="none" xmlns="http://www.w3.org/2000/svg">
<g clip-path="url(#clip0_920_129278)">
<path d="M23.6663 5.26855H0.333008V7.60189H23.6663V5.26855Z" fill="#FDB528" fill-opacity="0.6"/>
<path d="M20.1663 0.602051H3.83301C1.90235 0.607674 0.338631 2.17139 0.333008 4.10205V5.26872H23.6663V4.10205C23.6607 2.17139 22.097 0.607674 20.1663 0.602051ZM0.333008 14.6021C0.338701 16.5327 1.90235 18.0964 3.83301 18.1021H20.1663C22.097 18.0964 23.6606 16.5327 23.6663 14.6021V7.60205H0.333008V14.6021Z" fill="#FDB528" fill-opacity="0.34"/>
<path d="M9.66667 12.2684H6.16667C5.52234 12.2684 5 11.7461 5 11.1017C5 10.4574 5.52234 9.93506 6.16667 9.93506H9.66667C10.311 9.93506 10.8333 10.4574 10.8333 11.1017C10.8333 11.7461 10.311 12.2684 9.66667 12.2684Z" fill="#FFAB00"/>
</g>
<defs>
<clipPath id="clip0_920_129278">
<rect width="24" height="17" fill="white" transform="translate(0 0.768555)"/>
</clipPath>
</defs>
</svg>
