<svg width="106" height="69" viewBox="0 0 106 69" fill="none" xmlns="http://www.w3.org/2000/svg">
<rect y="0.835785" width="106" height="68" rx="4" fill="#2E263D" fill-opacity="0.02"/>
<mask id="path-2-outside-1_1746_156808" maskUnits="userSpaceOnUse" x="0" y="0.835785" width="29" height="68" fill="black">
<rect fill="white" y="0.835785" width="29" height="68"/>
<path d="M0 4.83578C0 2.62665 1.79086 0.835785 4 0.835785H28V68.8358H4C1.79086 68.8358 0 67.0449 0 64.8358V4.83578Z"/>
</mask>
<path d="M0 0.835785H28H0ZM28 68.8358H0H28ZM0 68.8358V0.835785V68.8358ZM29 0.835785V68.8358H27V0.835785H29Z" fill="#E6E6F1" fill-opacity="0.12" mask="url(#path-2-outside-1_1746_156808)"/>
<rect x="5" y="25.4435" width="18" height="2.87399" rx="1.43699" fill="#E6E6F1" fill-opacity="0.3"/>
<rect x="9" y="6.89536" width="10" height="10" rx="2" fill="#E6E6F1" fill-opacity="0.3"/>
<rect x="5" y="36.3175" width="18" height="2.87399" rx="1.43699" fill="#E6E6F1" fill-opacity="0.3"/>
<rect x="5" y="47.1915" width="18" height="2.87399" rx="1.43699" fill="#E6E6F1" fill-opacity="0.3"/>
<rect x="5" y="58.0653" width="18" height="2.87399" rx="1.43699" fill="#E6E6F1" fill-opacity="0.3"/>
<rect x="35.2715" y="6.14902" width="65" height="8.06667" rx="1.5" stroke="#E6E6F1" stroke-opacity="0.12"/>
<rect x="37.752" y="7.91562" width="4" height="4.53333" rx="1" fill="#E6E6F1" fill-opacity="0.3"/>
<rect x="81.7539" y="7.91562" width="4" height="4.53333" rx="1" fill="#E6E6F1" fill-opacity="0.3"/>
<rect x="87.752" y="7.91562" width="4" height="4.53333" rx="1" fill="#E6E6F1" fill-opacity="0.3"/>
<rect x="92.752" y="7.91562" width="4" height="4.53333" rx="1" fill="#E6E6F1" fill-opacity="0.3"/>
<rect x="60.1094" y="21.5435" width="40" height="17.1333" rx="1.5" stroke="#E6E6F1" stroke-opacity="0.12"/>
<rect x="35.5" y="21.3358" width="18.4118" height="17.1333" rx="1.5" stroke="#E6E6F1" stroke-opacity="0.12"/>
<rect x="35.2715" y="45.0768" width="65" height="17.1333" rx="1.5" stroke="#E6E6F1" stroke-opacity="0.12"/>
</svg>
