<svg width="107" height="69" viewBox="0 0 107 69" fill="none" xmlns="http://www.w3.org/2000/svg">
<rect x="0.412109" y="0.881836" width="106" height="68" rx="4" fill="#2E263D" fill-opacity="0.02"/>
<path d="M0.412109 4.88184C0.412109 2.6727 2.20297 0.881836 4.41211 0.881836H14.4121V68.8818H4.41211C2.20297 68.8818 0.412109 67.091 0.412109 64.8818V4.88184Z" fill="#E6E6F1" fill-opacity="0.06"/>
<rect x="3.41211" y="25.4895" width="8" height="2.87399" rx="1.43699" fill="#E6E6F1" fill-opacity="0.3"/>
<rect x="3.91211" y="6.94141" width="7" height="7" rx="2" fill="#E6E6F1" fill-opacity="0.3"/>
<rect x="3.41211" y="36.3635" width="8" height="2.87399" rx="1.43699" fill="#E6E6F1" fill-opacity="0.3"/>
<rect x="3.41211" y="47.2375" width="8" height="2.87399" rx="1.43699" fill="#E6E6F1" fill-opacity="0.3"/>
<rect x="3.41211" y="58.1113" width="8" height="2.87399" rx="1.43699" fill="#E6E6F1" fill-opacity="0.3"/>
<rect x="22.2949" y="5.69507" width="76.8877" height="9.06667" rx="2" fill="#E6E6F1" fill-opacity="0.08"/>
<rect x="26.5215" y="7.96167" width="4" height="4.53333" rx="1" fill="#E6E6F1" fill-opacity="0.3"/>
<rect x="80.1641" y="7.96167" width="4" height="4.53333" rx="1" fill="#E6E6F1" fill-opacity="0.3"/>
<rect x="86.1641" y="7.96167" width="4" height="4.53333" rx="1" fill="#E6E6F1" fill-opacity="0.3"/>
<rect x="92.1641" y="7.96167" width="4" height="4.53333" rx="1" fill="#E6E6F1" fill-opacity="0.3"/>
<rect x="51.873" y="21.0896" width="47.7216" height="18.1333" rx="2" fill="#E6E6F1" fill-opacity="0.08"/>
<rect x="22.2949" y="21.0896" width="22.5942" height="18.1333" rx="2" fill="#E6E6F1" fill-opacity="0.08"/>
<rect x="22.2949" y="44.6228" width="77.2998" height="18.1333" rx="2" fill="#E6E6F1" fill-opacity="0.08"/>
</svg>
