<svg width="107" height="68" viewBox="0 0 107 68" fill="none" xmlns="http://www.w3.org/2000/svg">
<rect x="0.333008" width="106" height="68" rx="4" fill="#2E263D" fill-opacity="0.02"/>
<path d="M0.333008 4C0.333008 1.79086 2.12387 0 4.33301 0H14.333V68H4.33301C2.12387 68 0.333008 66.2091 0.333008 64V4Z" fill="#22303E" fill-opacity="0.06"/>
<rect x="3.33301" y="24.6077" width="8" height="2.87399" rx="1.43699" fill="#22303E" fill-opacity="0.3"/>
<rect x="3.83301" y="6.05957" width="7" height="7" rx="2" fill="#22303E" fill-opacity="0.3"/>
<rect x="3.33301" y="35.4817" width="8" height="2.87399" rx="1.43699" fill="#22303E" fill-opacity="0.3"/>
<rect x="3.33301" y="46.3557" width="8" height="2.87399" rx="1.43699" fill="#22303E" fill-opacity="0.3"/>
<rect x="3.33301" y="57.2295" width="8" height="2.87399" rx="1.43699" fill="#22303E" fill-opacity="0.3"/>
<rect x="22.2168" y="4.81323" width="76.8877" height="9.06667" rx="2" fill="#22303E" fill-opacity="0.08"/>
<rect x="26.4424" y="7.07983" width="4" height="4.53333" rx="1" fill="#22303E" fill-opacity="0.3"/>
<rect x="80.085" y="7.07983" width="4" height="4.53333" rx="1" fill="#22303E" fill-opacity="0.3"/>
<rect x="86.085" y="7.07983" width="4" height="4.53333" rx="1" fill="#22303E" fill-opacity="0.3"/>
<rect x="92.085" y="7.07983" width="4" height="4.53333" rx="1" fill="#22303E" fill-opacity="0.3"/>
<rect x="51.7949" y="20.2078" width="47.7216" height="18.1333" rx="2" fill="#22303E" fill-opacity="0.08"/>
<rect x="22.2168" y="20.2078" width="22.5942" height="18.1333" rx="2" fill="#22303E" fill-opacity="0.08"/>
<rect x="22.2168" y="43.741" width="77.2998" height="18.1333" rx="2" fill="#22303E" fill-opacity="0.08"/>
</svg>
