<svg width="106" height="54" viewBox="0 0 106 54" fill="none" xmlns="http://www.w3.org/2000/svg">
<path d="M63.5931 28.3062C62.746 28.5312 61.8733 28.6451 60.9969 28.645C58.3281 28.645 55.8219 27.6075 53.9394 25.725C52.7032 24.4817 51.8145 22.9361 51.3618 21.2422C50.9091 19.5484 50.9083 17.7655 51.3594 16.0712C51.4157 15.8594 51.4154 15.6365 51.3583 15.4248C51.3013 15.2132 51.1896 15.0202 51.0345 14.8654C50.8794 14.7105 50.6863 14.5991 50.4745 14.5425C50.2628 14.4858 50.0399 14.4858 49.8281 14.5425C47.7071 15.1077 45.772 16.2208 44.2169 17.77C39.3444 22.6425 39.3444 30.5737 44.2169 35.4487C45.375 36.6134 46.7527 37.5367 48.27 38.1654C49.7874 38.794 51.4144 39.1155 53.0569 39.1112C54.6989 39.1158 56.3255 38.7946 57.8425 38.1661C59.3595 37.5377 60.7367 36.6145 61.8944 35.45C63.4448 33.8946 64.5583 31.9585 65.1231 29.8362C65.1792 29.6245 65.1788 29.4017 65.1218 29.1902C65.0648 28.9787 64.9533 28.7859 64.7984 28.631C64.6435 28.4761 64.4506 28.3646 64.2391 28.3076C64.0276 28.2506 63.8049 28.2501 63.5931 28.3062ZM60.1281 33.6825C59.2018 34.6139 58.1 35.3523 56.8865 35.855C55.6729 36.3577 54.3717 36.6147 53.0581 36.6112C51.7441 36.6145 50.4425 36.3572 49.2285 35.8543C48.0146 35.3514 46.9124 34.6128 45.9856 33.6812C42.0881 29.7825 42.0881 23.4375 45.9856 19.5387C46.7388 18.7864 47.6082 18.1605 48.5606 17.685C48.4212 19.4838 48.6718 21.2915 49.2953 22.9846C49.9188 24.6777 50.9004 26.2162 52.1731 27.495C53.4491 28.7717 54.9872 29.7561 56.681 30.38C58.3747 31.004 60.1838 31.2526 61.9831 31.1087C61.505 32.0595 60.8789 32.9282 60.1281 33.6825Z" fill="#E6E6F1" fill-opacity="0.9"/>
</svg>
