<svg width="106" height="54" viewBox="0 0 106 54" fill="none" xmlns="http://www.w3.org/2000/svg">
<path d="M63.5941 28.3062C62.747 28.5312 61.8743 28.6451 60.9979 28.645C58.3291 28.645 55.8229 27.6075 53.9404 25.725C52.7042 24.4817 51.8154 22.9361 51.3627 21.2422C50.9101 19.5484 50.9092 17.7655 51.3604 16.0712C51.4167 15.8594 51.4163 15.6365 51.3593 15.4248C51.3023 15.2132 51.1906 15.0202 51.0355 14.8654C50.8804 14.7105 50.6873 14.5991 50.4755 14.5425C50.2638 14.4858 50.0408 14.4858 49.8291 14.5425C47.7081 15.1077 45.7729 16.2208 44.2179 17.77C39.3454 22.6425 39.3454 30.5737 44.2179 35.4487C45.376 36.6134 46.7536 37.5367 48.271 38.1654C49.7884 38.794 51.4154 39.1155 53.0579 39.1112C54.6999 39.1158 56.3265 38.7946 57.8435 38.1661C59.3605 37.5377 60.7377 36.6145 61.8953 35.45C63.4457 33.8946 64.5593 31.9585 65.1241 29.8362C65.1802 29.6245 65.1797 29.4017 65.1228 29.1902C65.0658 28.9787 64.9543 28.7859 64.7994 28.631C64.6445 28.4761 64.4516 28.3646 64.2401 28.3076C64.0286 28.2506 63.8058 28.2501 63.5941 28.3062ZM60.1291 33.6825C59.2028 34.6139 58.101 35.3523 56.8874 35.855C55.6739 36.3577 54.3727 36.6147 53.0591 36.6112C51.7451 36.6145 50.4435 36.3572 49.2295 35.8543C48.0155 35.3514 46.9133 34.6128 45.9866 33.6812C42.0891 29.7825 42.0891 23.4375 45.9866 19.5387C46.7397 18.7864 47.6092 18.1605 48.5616 17.685C48.4222 19.4838 48.6728 21.2915 49.2963 22.9846C49.9197 24.6777 50.9014 26.2162 52.1741 27.495C53.4501 28.7717 54.9882 29.7561 56.6819 30.38C58.3757 31.004 60.1848 31.2526 61.9841 31.1087C61.506 32.0595 60.8799 32.9282 60.1291 33.6825Z" fill="#22303E" fill-opacity="0.9"/>
</svg>
