<svg width="107" height="69" viewBox="0 0 107 69" fill="none" xmlns="http://www.w3.org/2000/svg">
<rect x="0.511719" y="0.881836" width="106" height="68" rx="4" fill="#2E263D" fill-opacity="0.02"/>
<path d="M0.511719 4.88184C0.511719 2.6727 2.30258 0.881836 4.51172 0.881836H28.5117V68.8818H4.51172C2.30258 68.8818 0.511719 67.091 0.511719 64.8818V4.88184Z" fill="#E6E6F1" fill-opacity="0.08"/>
<rect x="5.51172" y="25.4895" width="18" height="2.87399" rx="1.43699" fill="#E6E6F1" fill-opacity="0.3"/>
<rect x="9.51172" y="6.94141" width="10" height="10" rx="2" fill="#E6E6F1" fill-opacity="0.3"/>
<rect x="5.51172" y="36.3635" width="18" height="2.87399" rx="1.43699" fill="#E6E6F1" fill-opacity="0.3"/>
<rect x="5.51172" y="47.2375" width="18" height="2.87399" rx="1.43699" fill="#E6E6F1" fill-opacity="0.3"/>
<rect x="5.51172" y="58.1113" width="18" height="2.87399" rx="1.43699" fill="#E6E6F1" fill-opacity="0.3"/>
<rect x="33.2832" y="5.69507" width="66" height="9.06667" rx="2" fill="#E6E6F1" fill-opacity="0.08"/>
<rect x="36.2637" y="7.96167" width="4" height="4.53333" rx="1" fill="#E6E6F1" fill-opacity="0.3"/>
<rect x="80.2637" y="7.96167" width="4" height="4.53333" rx="1" fill="#E6E6F1" fill-opacity="0.3"/>
<rect x="86.2637" y="7.96167" width="4" height="4.53333" rx="1" fill="#E6E6F1" fill-opacity="0.3"/>
<rect x="92.2637" y="7.96167" width="4" height="4.53333" rx="1" fill="#E6E6F1" fill-opacity="0.3"/>
<rect x="58.6953" y="21.0896" width="41" height="18.1333" rx="2" fill="#E6E6F1" fill-opacity="0.08"/>
<rect x="33.2832" y="21.0896" width="19.4118" height="18.1333" rx="2" fill="#E6E6F1" fill-opacity="0.08"/>
<rect x="33.2832" y="44.6228" width="66.4121" height="18.1333" rx="2" fill="#E6E6F1" fill-opacity="0.08"/>
</svg>
