<svg width="106" height="54" viewBox="0 0 106 54" fill="none" xmlns="http://www.w3.org/2000/svg">
<path d="M47.0748 27C47.0748 30.4512 49.8823 33.2587 53.3336 33.2587C56.7848 33.2587 59.5923 30.4512 59.5923 27C59.5923 23.5488 56.7848 20.7413 53.3336 20.7413C49.8823 20.7413 47.0748 23.5488 47.0748 27ZM53.3336 23.2413C55.4061 23.2413 57.0923 24.9275 57.0923 27C57.0923 29.0725 55.4061 30.7587 53.3336 30.7587C51.2611 30.7587 49.5748 29.0725 49.5748 27C49.5748 24.9275 51.2611 23.2413 53.3336 23.2413ZM52.0811 35.75H54.5811V39.5H52.0811V35.75ZM52.0811 14.5H54.5811V18.25H52.0811V14.5ZM40.8311 25.75H44.5811V28.25H40.8311V25.75ZM62.0811 25.75H65.8311V28.25H62.0811V25.75ZM43.6073 34.9538L46.2573 32.3012L48.0261 34.0688L45.3761 36.7213L43.6073 34.9538ZM58.6336 19.93L61.2861 17.2775L63.0536 19.045L60.4011 21.6975L58.6336 19.93ZM46.2611 21.6987L43.6086 19.0463L45.3773 17.2788L48.0273 19.9312L46.2611 21.6987ZM63.0536 34.955L61.2861 36.7225L58.6336 34.07L60.4011 32.3025L63.0536 34.955Z" fill="#22303E" fill-opacity="0.9"/>
</svg>
