<svg width="106" height="54" viewBox="0 0 106 54" fill="none" xmlns="http://www.w3.org/2000/svg">
<path d="M47.0738 27C47.0738 30.4512 49.8813 33.2587 53.3326 33.2587C56.7838 33.2587 59.5913 30.4512 59.5913 27C59.5913 23.5488 56.7838 20.7413 53.3326 20.7413C49.8813 20.7413 47.0738 23.5488 47.0738 27ZM53.3326 23.2413C55.4051 23.2413 57.0913 24.9275 57.0913 27C57.0913 29.0725 55.4051 30.7587 53.3326 30.7587C51.2601 30.7587 49.5738 29.0725 49.5738 27C49.5738 24.9275 51.2601 23.2413 53.3326 23.2413ZM52.0801 35.75H54.5801V39.5H52.0801V35.75ZM52.0801 14.5H54.5801V18.25H52.0801V14.5ZM40.8301 25.75H44.5801V28.25H40.8301V25.75ZM62.0801 25.75H65.8301V28.25H62.0801V25.75ZM43.6063 34.9538L46.2563 32.3012L48.0251 34.0688L45.3751 36.7213L43.6063 34.9538ZM58.6326 19.93L61.2851 17.2775L63.0526 19.045L60.4001 21.6975L58.6326 19.93ZM46.2601 21.6987L43.6076 19.0463L45.3763 17.2788L48.0263 19.9312L46.2601 21.6987ZM63.0526 34.955L61.2851 36.7225L58.6326 34.07L60.4001 32.3025L63.0526 34.955Z" fill="#E6E6F1" fill-opacity="0.9"/>
</svg>
