<svg width="106" height="69" viewBox="0 0 106 69" fill="none" xmlns="http://www.w3.org/2000/svg">
<rect y="0.240234" width="106" height="68" rx="4" fill="#2E263D" fill-opacity="0.02"/>
<rect x="5.30078" y="4.48657" width="24.561" height="59.3336" rx="2" fill="#E6E6F1" fill-opacity="0.08"/>
<rect x="10.5215" y="17.6212" width="14.1209" height="2.15549" rx="1.07775" fill="#E6E6F1" fill-opacity="0.3"/>
<rect x="10.5215" y="26.5767" width="10.0694" height="2.15549" rx="1.07775" fill="#E6E6F1" fill-opacity="0.3"/>
<rect x="10.5215" y="35.5321" width="12.6207" height="2.15549" rx="1.07775" fill="#E6E6F1" fill-opacity="0.3"/>
<rect x="10.5215" y="44.4877" width="6.20526" height="2.15549" rx="1.07775" fill="#E6E6F1" fill-opacity="0.3"/>
<rect x="10.5215" y="53.4434" width="8.24653" height="2.15549" rx="1.07775" fill="#E6E6F1" fill-opacity="0.3"/>
<rect x="36.1953" y="4.48657" width="63.5883" height="59.3336" rx="2" fill="#E6E6F1" fill-opacity="0.08"/>
<rect x="44.5977" y="14.8534" width="14.1209" height="2.15549" rx="1.07775" fill="#E6E6F1" fill-opacity="0.3"/>
<rect x="44.5977" y="23.8088" width="33.432" height="2.15549" rx="1.07775" fill="#E6E6F1" fill-opacity="0.3"/>
<rect x="44.5977" y="32.7643" width="42" height="2.15549" rx="1.07775" fill="#E6E6F1" fill-opacity="0.3"/>
<rect x="44.5977" y="41.7196" width="33.432" height="2.15549" rx="1.07775" fill="#E6E6F1" fill-opacity="0.3"/>
<rect x="44.5977" y="50.6754" width="5.88587" height="2.15549" rx="1.07775" fill="#E6E6F1" fill-opacity="0.3"/>
</svg>
