<svg width="107" height="69" viewBox="0 0 107 69" fill="none" xmlns="http://www.w3.org/2000/svg">
<rect x="0.333008" y="0.090271" width="106" height="68" rx="4" fill="#2E263D" fill-opacity="0.02"/>
<rect x="5.63477" y="4.33661" width="24.561" height="59.3336" rx="2" fill="#22303E" fill-opacity="0.08"/>
<rect x="10.8555" y="17.4713" width="14.1209" height="2.15549" rx="1.07775" fill="#22303E" fill-opacity="0.3"/>
<rect x="10.8555" y="26.4267" width="10.0694" height="2.15549" rx="1.07775" fill="#22303E" fill-opacity="0.3"/>
<rect x="10.8555" y="35.3821" width="12.6207" height="2.15549" rx="1.07775" fill="#22303E" fill-opacity="0.3"/>
<rect x="10.8555" y="44.3377" width="6.20526" height="2.15549" rx="1.07775" fill="#22303E" fill-opacity="0.3"/>
<rect x="10.8555" y="53.2934" width="8.24653" height="2.15549" rx="1.07775" fill="#22303E" fill-opacity="0.3"/>
<rect x="36.5283" y="4.33661" width="63.5883" height="59.3336" rx="2" fill="#22303E" fill-opacity="0.08"/>
<rect x="44.9307" y="14.7034" width="14.1209" height="2.15549" rx="1.07775" fill="#22303E" fill-opacity="0.3"/>
<rect x="44.9307" y="23.6589" width="33.432" height="2.15549" rx="1.07775" fill="#22303E" fill-opacity="0.3"/>
<rect x="44.9307" y="32.6143" width="42" height="2.15549" rx="1.07775" fill="#22303E" fill-opacity="0.3"/>
<rect x="44.9307" y="41.5696" width="33.432" height="2.15549" rx="1.07775" fill="#22303E" fill-opacity="0.3"/>
<rect x="44.9307" y="50.5255" width="5.88587" height="2.15549" rx="1.07775" fill="#22303E" fill-opacity="0.3"/>
</svg>
