<svg width="106" height="69" viewBox="0 0 106 69" fill="none" xmlns="http://www.w3.org/2000/svg">
<rect y="0.835785" width="106" height="68" rx="4" fill="#2E263D" fill-opacity="0.02"/>
<path d="M0 4.83578C0 2.62665 1.79086 0.835785 4 0.835785H28V68.8358H4C1.79086 68.8358 0 67.0449 0 64.8358V4.83578Z" fill="#E6E6F1" fill-opacity="0.3"/>
<rect x="5" y="25.4435" width="18" height="2.87399" rx="1.43699" fill="#232333"/>
<rect x="9" y="6.89536" width="10" height="10" rx="2" fill="#232333"/>
<rect x="5" y="36.3175" width="18" height="2.87399" rx="1.43699" fill="#232333"/>
<rect x="5" y="47.1915" width="18" height="2.87399" rx="1.43699" fill="#232333"/>
<rect x="5" y="58.0653" width="18" height="2.87399" rx="1.43699" fill="#232333"/>
<rect x="34.7715" y="5.64902" width="66" height="9.06667" rx="2" fill="#E6E6F1" fill-opacity="0.08"/>
<rect x="37.752" y="7.91562" width="4" height="4.53333" rx="1" fill="#E6E6F1" fill-opacity="0.3"/>
<rect x="81.7539" y="7.91562" width="4" height="4.53333" rx="1" fill="#E6E6F1" fill-opacity="0.3"/>
<rect x="87.752" y="7.91562" width="4" height="4.53333" rx="1" fill="#E6E6F1" fill-opacity="0.3"/>
<rect x="93.752" y="7.91562" width="4" height="4.53333" rx="1" fill="#E6E6F1" fill-opacity="0.3"/>
<rect x="59.6094" y="21.0435" width="41" height="18.1333" rx="2" fill="#E6E6F1" fill-opacity="0.08"/>
<rect x="34.7715" y="21.0435" width="19.4118" height="18.1333" rx="2" fill="#E6E6F1" fill-opacity="0.08"/>
<rect x="34.7715" y="44.5768" width="66" height="18.1333" rx="2" fill="#E6E6F1" fill-opacity="0.08"/>
</svg>
